<svg xmlns="http://www.w3.org/2000/svg" xmlns:svg="http://www.w3.org/2000/svg" xmlns:xlink="http://www.w3.org/1999/xlink" viewBox="0 221 2048 2048"><path d="M1348 403L1348 403L1427 369Q1483 370 1550.50 379.50Q1618 389 1651 399L1651 399Q1683 410 1683 444L1683 444Q1683 489 1664 526Q1645 563 1628 575L1628 575Q1608 573 1565 572.50Q1522 572 1477 571.50Q1432 571 1405 571L1405 571Q1376 571 1300.50 572Q1225 573 1127.50 574.50Q1030 576 933 577.50Q836 579 762 580.50Q688 582 662 584L662 584Q628 585 576 594Q524 603 492 612L492 612Q438 585 385 541.50Q332 498 295 457L295 457Q286 444 293 430L293 430L309 397Q366 407 433 412.50Q500 418 543 418L543 418Q573 418 653.50 417.50Q734 417 837.50 415.50Q941 414 1045.50 412Q1150 410 1232 407.50Q1314 405 1348 403ZM1403 688L1397 760L1382 870L1450 842Q1501 843 1563.50 852.50Q1626 862 1655 872L1655 872Q1683 882 1683 918L1683 918Q1683 961 1665 997.50Q1647 1034 1628 1044L1628 1044Q1610 1042 1572 1041.50Q1534 1041 1493.50 1040.50Q1453 1040 1427 1040L1427 1040Q1400 1040 1325.50 1041.50Q1251 1043 1155 1045Q1059 1047 963 1049.50Q867 1052 793 1054.50Q719 1057 692 1059L692 1059Q658 1060 606 1069Q554 1078 522 1087L522 1087Q468 1060 415 1016.50Q362 973 326 932L326 932Q316 920 324 905L324 905L340 872Q397 882 463.50 887.50Q530 893 573 893L573 893L657 893L637 791Q628 772 607 753.50Q586 735 563 723L563 723L588 655Q592 646 600 641.50Q608 637 627 639L627 639Q684 644 755.50 659Q827 674 868 692L868 692Q894 702 891 737L891 737L887 813L895 889L1145 883L1143 743Q1118 708 1067 694L1067 694L1087 625Q1091 617 1098.50 612.50Q1106 608 1126 608L1126 608Q1183 610 1259.50 619.50Q1336 629 1380 641L1380 641Q1406 650 1403 688L1403 688ZM1438 1296L1546 1290L1642 1247Q1688 1249 1742 1256Q1796 1263 1844 1272.50Q1892 1282 1919 1292L1919 1292Q1956 1306 1956 1343L1956 1343Q1956 1385 1932.50 1419Q1909 1453 1886 1462L1886 1462Q1861 1459 1809.50 1457Q1758 1455 1703.50 1453.50Q1649 1452 1614 1452L1614 1452Q1579 1452 1496 1452.50Q1413 1453 1302.50 1454.50Q1192 1456 1073 1457.50Q954 1459 844.50 1460.50Q735 1462 654.50 1464Q574 1466 543 1468L543 1468Q516 1470 469 1477.50Q422 1485 374.50 1494Q327 1503 297 1511L297 1511Q232 1488 165.50 1444.50Q99 1401 53 1358L53 1358Q39 1344 47 1325L47 1325L68 1286Q132 1297 209.50 1303Q287 1309 348 1311L348 1311L618 1311L612 1239Q599 1224 573 1210Q547 1196 522 1188L522 1188L537 1128Q540 1121 548 1116.50Q556 1112 575 1112L575 1112Q614 1112 668 1116Q722 1120 773 1126.50Q824 1133 856 1141L856 1141Q882 1149 879 1188L879 1188L872 1278L872 1307L1188 1303L1192 1221Q1162 1181 1104 1157L1104 1157L1126 1100Q1129 1092 1137 1088Q1145 1084 1163 1085L1163 1085Q1205 1089 1258.50 1096.50Q1312 1104 1361.50 1114.50Q1411 1125 1442 1137L1442 1137Q1472 1151 1466 1184L1466 1184L1442 1274L1438 1296ZM1694 1597L1690 1681L1686 1855Q1686 1903 1677 1957.50Q1668 2012 1657 2046L1657 2046L1694 2064Q1712 2077 1712 2097L1712 2097Q1712 2129 1704 2156.50Q1696 2184 1686 2198L1686 2198L1280 2200Q1263 2246 1231 2267L1231 2267L1104 2267Q1090 2235 1083.50 2193Q1077 2151 1075 2122L1075 2122L1067 1724Q1056 1706 1032 1687Q1008 1668 983 1657L983 1657L961 1718Q957 1740 946 1771Q935 1802 926 1819L926 1819L963 1841Q973 1851 973 1868L973 1868Q973 1894 962.50 1918.50Q952 1943 940 1954L940 1954L618 1970L618 2030Q618 2062 651 2062L651 2062Q698 2061 758 2055.50Q818 2050 876 2041.50Q934 2033 975 2021L975 2021Q997 2018 1004 2034L1004 2034L1022 2091Q1026 2106 1006 2120L1006 2120Q964 2146 902.50 2174.50Q841 2203 777.50 2225.50Q714 2248 664 2257L664 2257Q642 2262 614.50 2265.50Q587 2269 573 2269L573 2269Q490 2269 445.50 2232.50Q401 2196 381 2126L381 2126Q378 2118 376.50 2090.50Q375 2063 375 2030L375 2030L375 1956Q356 1936 330 1920.50Q304 1905 274 1894L274 1894L289 1837Q293 1825 311 1825L311 1825Q347 1825 407.50 1825Q468 1825 527.50 1826Q587 1827 621 1829L621 1829Q636 1829 657.50 1827.50Q679 1826 690 1823L690 1823L715 1817Q716 1801 716 1773Q716 1745 715 1735L715 1735L563 1737Q540 1738 505.50 1744.50Q471 1751 444 1757L444 1757Q403 1730 363.50 1693Q324 1656 295 1622L295 1622Q283 1605 289 1591L289 1591L309 1559Q346 1566 399 1570.50Q452 1575 487 1575L487 1575L772 1573L838 1550Q855 1543 872 1550L872 1550Q895 1558 931 1573Q967 1588 985 1597L985 1597L989 1604L991 1593Q995 1579 1026 1579L1026 1579Q1063 1579 1113 1584Q1163 1589 1210 1596.50Q1257 1604 1286 1612L1286 1612Q1314 1621 1311 1657L1311 1657L1307 1745L1307 1763L1444 1761L1444 1669Q1415 1619 1352 1587L1352 1587L1368 1524Q1371 1516 1378.50 1512Q1386 1508 1405 1509L1405 1509Q1443 1510 1494 1516.50Q1545 1523 1593 1532.50Q1641 1542 1671 1552L1671 1552Q1697 1564 1694 1597L1694 1597ZM1303 1923L1300 2036L1444 2034L1444 1921L1303 1923Z" class="font-svg"></path></svg>