<?xml version="1.0" standalone="no"?>
<!DOCTYPE svg PUBLIC "-//W3C//DTD SVG 1.1//EN" "http://www.w3.org/Graphics/SVG/1.1/DTD/svg11.dtd" >
<svg xmlns="http://www.w3.org/2000/svg" xmlns:svg="http://www.w3.org/2000/svg" xmlns:xlink="http://www.w3.org/1999/xlink" viewBox="0 0 2048 2048"><path d="M336.68 194.16H372.94Q388.12 229.53 402.55 295.78Q413.68 340.59 406.59 379.61H855.47V43.36L1245.6 68.55Q1253.83 113.78 1215.82 107.56Q1200.75 133.16 1186.33 129.51V359.33H1605.9L1742.99 214.32L2010.35 463.14Q1972.82 484.59 1915.34 492.67Q1870.45 527.46 1764.6 589.98Q1696.74 627.99 1601 667.47L1706.16 726.24Q1693.93 730.27 1656.16 741.49Q1659.49 769.56 1621.23 768.77V1150.75Q1614.94 1149.37 1573.96 1171Q1524.65 1193.32 1475.68 1199.85Q1414.7 1219.28 1374.6 1223.21H1339.48V1101.31H707.73V1358.08H1374.79L1520.08 1215.69L1763.84 1408.87Q1783.78 1424.22 1738.71 1446.14Q1730.69 1450.73 1717.05 1449.93V1914.03Q1690.75 1937.32 1660.64 1948.37Q1616.32 1959.13 1562.42 1974.22Q1511.34 1993.2 1460.32 1981.6H1408.31V1828.66H715.7V1893.89Q709.3 1930.61 673.32 1942.72Q645.21 1966.49 605.4 1998.35Q530.3 2006.18 462.33 2011.7H434.27V554.63L726.7 673.17H1309.31L1442.93 536.77L1562.2 643.74Q1590.38 582.78 1599.1 537.38Q1604.48 476.53 1623.25 417.02H419.68Q435.66 522.64 376.86 609.02Q351.35 658.25 315.59 692.62Q278.06 727.54 235.22 735.96Q172.22 740.71 136.19 712.41Q98.25 684.71 66.82 644.93Q62.09 569.2 94.43 515.46Q133.75 477.54 189.18 438.24Q211.6 412.66 259.91 383.2Q276.21 335.44 311.38 301.7Q347.68 242.63 334.84 183.01ZM706.81 1049.09H1316.5V711.53H728.32ZM715.91 1419.78V1778.51H1399.19V1423.25Z" fill="black"></path></svg>