<?xml version="1.0" standalone="no"?>
<!DOCTYPE svg PUBLIC "-//W3C//DTD SVG 1.1//EN" "http://www.w3.org/Graphics/SVG/1.1/DTD/svg11.dtd" >
<svg xmlns="http://www.w3.org/2000/svg" xmlns:svg="http://www.w3.org/2000/svg" xmlns:xlink="http://www.w3.org/1999/xlink" viewBox="0 0 2048 2048"><path d="M335.5 192.0H360.5Q380.5 238.0 392.0 281.0Q403.5 324.0 409.5 364.0H860.5V49.0L1241.5 75.0Q1239.5 97.0 1225.0 112.0Q1210.5 127.0 1167.5 135.0V364.0H1601.5L1744.5 221.0L1992.5 454.0Q1971.5 478.0 1912.5 481.0Q1854.5 526.0 1769.0 575.0Q1683.5 624.0 1605.5 661.0L1687.5 723.0Q1679.5 733.0 1662.0 744.0Q1644.5 755.0 1615.5 762.0V1145.0Q1614.5 1152.0 1573.5 1166.5Q1532.5 1181.0 1476.0 1193.5Q1419.5 1206.0 1372.5 1206.0H1320.5V1102.0H716.5V1349.0H1384.5L1513.5 1212.0L1773.5 1409.0Q1764.5 1419.0 1747.0 1430.5Q1729.5 1442.0 1701.5 1448.0V1910.0Q1700.5 1920.0 1660.0 1938.5Q1619.5 1957.0 1563.0 1972.5Q1506.5 1988.0 1456.5 1988.0H1404.5V1833.0H716.5V1896.0Q716.5 1913.0 680.5 1937.0Q644.5 1961.0 587.5 1980.0Q530.5 1999.0 466.5 1999.0H419.5V540.0L731.5 663.0H1300.5L1427.5 528.0L1560.5 628.0Q1575.5 581.0 1589.5 526.0Q1603.5 471.0 1613.5 422.0H415.5Q420.5 525.0 386.5 596.0Q352.5 667.0 298.5 702.0Q262.5 727.0 216.5 726.5Q170.5 726.0 131.5 702.0Q92.5 678.0 75.5 630.0Q55.5 564.0 86.5 515.0Q117.5 466.0 174.5 438.0Q209.5 420.0 247.0 382.5Q284.5 345.0 310.0 295.5Q335.5 246.0 335.5 192.0ZM716.5 1044.0H1320.5V721.0H716.5ZM716.5 1407.0V1775.0H1404.5V1407.0Z" fill="black"></path></svg>